<?xml version="1.0" encoding="UTF-8" standalone="no"?>
<!-- Created with Inkscape (http://www.inkscape.org/) -->

<svg
   xmlns:dc="http://purl.org/dc/elements/1.1/"
   xmlns:cc="http://creativecommons.org/ns#"
   xmlns:rdf="http://www.w3.org/1999/02/22-rdf-syntax-ns#"
   xmlns:svg="http://www.w3.org/2000/svg"
   xmlns="http://www.w3.org/2000/svg"
   xmlns:sodipodi="http://sodipodi.sourceforge.net/DTD/sodipodi-0.dtd"
   xmlns:inkscape="http://www.inkscape.org/namespaces/inkscape"
   width="88.983078mm"
   height="80.997437mm"
   id="svg2"
   version="1.1"
   inkscape:version="0.92.3 (2405546, 2018-03-11)"
   sodipodi:docname="printable-avatar.svg"
   inkscape:export-filename="C:\Users\Jan\Documents\Avatar.png"
   inkscape:export-xdpi="44.137932"
   inkscape:export-ydpi="44.137932"
   viewBox="0 0 470.8396 428.58485">
  <defs
     id="defs4" />
  <sodipodi:namedview
     id="base"
     pagecolor="#ffffff"
     bordercolor="#666666"
     borderopacity="1.0"
     inkscape:pageopacity="0.0"
     inkscape:pageshadow="2"
     inkscape:zoom="0.98994949"
     inkscape:cx="-37.516958"
     inkscape:cy="98.555719"
     inkscape:document-units="px"
     inkscape:current-layer="layer1"
     showgrid="false"
     inkscape:window-width="1853"
     inkscape:window-height="1025"
     inkscape:window-x="67"
     inkscape:window-y="27"
     inkscape:window-maximized="1"
     fit-margin-top="0"
     fit-margin-left="0"
     fit-margin-right="0"
     fit-margin-bottom="0"
     scale-x="1.4" />
  <metadata
     id="metadata7">
    <rdf:RDF>
      <cc:Work
         rdf:about="">
        <dc:format>image/svg+xml</dc:format>
        <dc:type
           rdf:resource="http://purl.org/dc/dcmitype/StillImage" />
        <dc:title></dc:title>
      </cc:Work>
    </rdf:RDF>
  </metadata>
  <g
     inkscape:label="Ebene 1"
     inkscape:groupmode="layer"
     id="layer1"
     transform="translate(-137.05923,-176.99503)">
    <g
       transform="matrix(4.6274876,0,0,4.6274876,-754.90355,-1459.1235)"
       id="g3762"
       style="font-style:normal;font-variant:normal;font-weight:normal;font-stretch:normal;font-size:48px;line-height:125%;font-family:Calibri;-inkscape-font-specification:Calibri;letter-spacing:0px;word-spacing:0px;fill:#000000;fill-opacity:1;stroke:#ffffff;stroke-opacity:1">
      <path
         inkscape:connector-curvature="0"
         id="path3764"
         style="font-size:144px;stroke:#ffffff;stroke-opacity:1"
         d="m 294.00157,440.26831 c -8e-5,0.9375 -0.15242,1.73438 -0.45703,2.39063 -0.30477,0.65625 -0.7032,1.19531 -1.19531,1.61718 -0.49227,0.42188 -1.04305,0.72657 -1.65235,0.91407 -0.60945,0.1875 -1.21882,0.28125 -1.82812,0.28125 h -3.86719 c -1.21882,0 -2.28522,-0.12891 -3.19922,-0.38672 -0.91413,-0.25782 -1.78131,-0.72656 -2.60156,-1.40625 -0.82038,-0.67969 -1.64069,-1.60547 -2.46094,-2.77735 -0.82037,-1.17187 -1.72272,-2.67186 -2.70703,-4.5 l -28.6875,-51.75 c -1.50003,-2.67181 -3.01175,-5.47259 -4.53515,-8.40234 -1.52347,-2.92962 -2.94144,-5.77727 -4.25391,-8.54297 h -0.14063 c 0.0937,3.37507 0.16404,6.82038 0.21094,10.33594 0.0469,3.51569 0.0703,7.00787 0.0703,10.47656 v 54.91406 c -2e-5,0.32813 -0.0938,0.64454 -0.28125,0.94922 -0.18752,0.30469 -0.50392,0.53906 -0.94921,0.70313 -0.44534,0.16406 -1.03128,0.30468 -1.75782,0.42187 -0.72658,0.11719 -1.65236,0.17578 -2.77734,0.17578 -1.12502,0 -2.0508,-0.0586 -2.77734,-0.17578 -0.72658,-0.11719 -1.3008,-0.25781 -1.72266,-0.42187 -0.42189,-0.16407 -0.72658,-0.39844 -0.91406,-0.70313 -0.18752,-0.30468 -0.28127,-0.62109 -0.28125,-0.94922 v -83.95312 c -2e-5,-1.87491 0.51561,-3.21085 1.54687,-4.00781 1.03124,-0.79679 2.15624,-1.19523 3.375,-1.19532 h 5.76563 c 1.35935,9e-5 2.49607,0.11728 3.41015,0.35157 0.91404,0.23446 1.73435,0.62118 2.46094,1.16015 0.72653,0.53915 1.42966,1.28915 2.10938,2.25 0.67965,0.96103 1.41793,2.16806 2.21484,3.6211 l 22.07812,39.9375 c 1.35932,2.43754 2.67182,4.81644 3.9375,7.13671 1.26557,2.32035 2.48432,4.6055 3.65625,6.85547 1.17182,2.25003 2.33197,4.46487 3.48047,6.64453 1.14837,2.17971 2.28509,4.37112 3.41016,6.57422 h 0.0703 c -0.0938,-3.7031 -0.15241,-7.55857 -0.17578,-11.5664 -0.0235,-4.00778 -0.0352,-7.86325 -0.0352,-11.56641 v -49.35937 c -7e-5,-0.32804 0.0937,-0.63273 0.28125,-0.91407 0.18743,-0.28116 0.50384,-0.52725 0.94922,-0.73828 0.44524,-0.21084 1.03118,-0.36319 1.75782,-0.45703 0.72648,-0.0937 1.6757,-0.14053 2.84765,-0.14062 1.03118,9e-5 1.9218,0.047 2.67188,0.14062 0.74992,0.0938 1.33585,0.24619 1.75781,0.45703 0.42179,0.21103 0.72648,0.45712 0.91406,0.73828 0.18742,0.28134 0.28117,0.58603 0.28125,0.91407 z" />
    </g>
    <g
       style="font-style:normal;font-variant:normal;font-weight:normal;font-stretch:normal;font-size:48px;line-height:125%;font-family:Calibri;-inkscape-font-specification:Calibri;letter-spacing:0px;word-spacing:0px;fill:#000000;fill-opacity:1;stroke:#ffffff;stroke-opacity:1"
       id="text3755"
       transform="matrix(4.6274876,0,0,4.6274876,-902.90355,-1459.1235)">
      <path
         d="m 294.00157,440.26831 c -8e-5,0.9375 -0.15242,1.73438 -0.45703,2.39063 -0.30477,0.65625 -0.7032,1.19531 -1.19531,1.61718 -0.49227,0.42188 -1.04305,0.72657 -1.65235,0.91407 -0.60945,0.1875 -1.21882,0.28125 -1.82812,0.28125 h -3.86719 c -1.21882,0 -2.28522,-0.12891 -3.19922,-0.38672 -0.91413,-0.25782 -1.78131,-0.72656 -2.60156,-1.40625 -0.82038,-0.67969 -1.64069,-1.60547 -2.46094,-2.77735 -0.82037,-1.17187 -1.72272,-2.67186 -2.70703,-4.5 l -28.6875,-51.75 c -1.50003,-2.67181 -3.01175,-5.47259 -4.53515,-8.40234 -1.52347,-2.92962 -2.94144,-5.77727 -4.25391,-8.54297 h -0.14063 c 0.0937,3.37507 0.16404,6.82038 0.21094,10.33594 0.0469,3.51569 0.0703,7.00787 0.0703,10.47656 v 54.91406 c -2e-5,0.32813 -0.0938,0.64454 -0.28125,0.94922 -0.18752,0.30469 -0.50392,0.53906 -0.94921,0.70313 -0.44534,0.16406 -1.03128,0.30468 -1.75782,0.42187 -0.72658,0.11719 -1.65236,0.17578 -2.77734,0.17578 -1.12502,0 -2.0508,-0.0586 -2.77734,-0.17578 -0.72658,-0.11719 -1.3008,-0.25781 -1.72266,-0.42187 -0.42189,-0.16407 -0.72658,-0.39844 -0.91406,-0.70313 -0.18752,-0.30468 -0.28127,-0.62109 -0.28125,-0.94922 v -83.95312 c -2e-5,-1.87491 0.51561,-3.21085 1.54687,-4.00781 1.03124,-0.79679 2.15624,-1.19523 3.375,-1.19532 h 5.76563 c 1.35935,9e-5 2.49607,0.11728 3.41015,0.35157 0.91404,0.23446 1.73435,0.62118 2.46094,1.16015 0.72653,0.53915 1.42966,1.28915 2.10938,2.25 0.67965,0.96103 1.41793,2.16806 2.21484,3.6211 l 22.07812,39.9375 c 1.35932,2.43754 2.67182,4.81644 3.9375,7.13671 1.26557,2.32035 2.48432,4.6055 3.65625,6.85547 1.17182,2.25003 2.33197,4.46487 3.48047,6.64453 1.14837,2.17971 2.28509,4.37112 3.41016,6.57422 h 0.0703 c -0.0938,-3.7031 -0.15241,-7.55857 -0.17578,-11.5664 -0.0235,-4.00778 -0.0352,-7.86325 -0.0352,-11.56641 v -49.35937 c -7e-5,-0.32804 0.0937,-0.63273 0.28125,-0.91407 0.18743,-0.28116 0.50384,-0.52725 0.94922,-0.73828 0.44524,-0.21084 1.03118,-0.36319 1.75782,-0.45703 0.72648,-0.0937 1.6757,-0.14053 2.84765,-0.14062 1.03118,9e-5 1.9218,0.047 2.67188,0.14062 0.74992,0.0938 1.33585,0.24619 1.75781,0.45703 0.42179,0.21103 0.72648,0.45712 0.91406,0.73828 0.18742,0.28134 0.28117,0.58603 0.28125,0.91407 z"
         style="font-size:144px;stroke:#ffffff;stroke-opacity:1"
         id="path3760"
         inkscape:connector-curvature="0" />
    </g>
  </g>
</svg>
