<?xml version="1.0" encoding="UTF-8" standalone="no"?>
<!-- Created with Inkscape (http://www.inkscape.org/) -->

<svg
   xmlns:dc="http://purl.org/dc/elements/1.1/"
   xmlns:cc="http://creativecommons.org/ns#"
   xmlns:rdf="http://www.w3.org/1999/02/22-rdf-syntax-ns#"
   xmlns:svg="http://www.w3.org/2000/svg"
   xmlns="http://www.w3.org/2000/svg"
   xmlns:sodipodi="http://sodipodi.sourceforge.net/DTD/sodipodi-0.dtd"
   xmlns:inkscape="http://www.inkscape.org/namespaces/inkscape"
   width="88.983078mm"
   height="80.997437mm"
   id="svg2"
   version="1.1"
   inkscape:version="0.92.3 (2405546, 2018-03-11)"
   sodipodi:docname="avatar-border.svg"
   inkscape:export-filename="C:\Users\Jan\Documents\Avatar.png"
   inkscape:export-xdpi="44.137932"
   inkscape:export-ydpi="44.137932"
   viewBox="0 0 470.8396 428.58485">
  <defs
     id="defs4" />
  <sodipodi:namedview
     id="base"
     pagecolor="#ffffff"
     bordercolor="#666666"
     borderopacity="1.0"
     inkscape:pageopacity="0.0"
     inkscape:pageshadow="2"
     inkscape:zoom="2.809245"
     inkscape:cx="172.25134"
     inkscape:cy="167.30732"
     inkscape:document-units="px"
     inkscape:current-layer="g3762"
     showgrid="false"
     inkscape:window-width="1853"
     inkscape:window-height="1025"
     inkscape:window-x="67"
     inkscape:window-y="27"
     inkscape:window-maximized="1"
     fit-margin-top="0"
     fit-margin-left="0"
     fit-margin-right="0"
     fit-margin-bottom="0"
     scale-x="1.4" />
  <metadata
     id="metadata7">
    <rdf:RDF>
      <cc:Work
         rdf:about="">
        <dc:format>image/svg+xml</dc:format>
        <dc:type
           rdf:resource="http://purl.org/dc/dcmitype/StillImage" />
        <dc:title></dc:title>
      </cc:Work>
    </rdf:RDF>
  </metadata>
  <g
     inkscape:label="right"
     inkscape:groupmode="layer"
     id="layer1"
     transform="translate(-137.05923,-176.99503)">
    <g
       transform="matrix(4.6274876,0,0,4.6274876,-754.90355,-1459.1235)"
       id="g3762"
       style="font-style:normal;font-variant:normal;font-weight:normal;font-stretch:normal;font-size:48px;line-height:125%;font-family:Calibri;-inkscape-font-specification:Calibri;letter-spacing:0px;word-spacing:0px;fill:#ffffff;fill-opacity:1;stroke:#040404;stroke-opacity:1">
      <path
         style="color:#000000;font-style:normal;font-variant:normal;font-weight:normal;font-stretch:normal;font-size:144px;line-height:125%;font-family:Calibri;-inkscape-font-specification:Calibri;font-variant-ligatures:normal;font-variant-position:normal;font-variant-caps:normal;font-variant-numeric:normal;font-variant-alternates:normal;font-feature-settings:normal;text-indent:0;text-align:start;text-decoration:none;text-decoration-line:none;text-decoration-style:solid;text-decoration-color:#000000;letter-spacing:0px;word-spacing:0px;text-transform:none;writing-mode:lr-tb;direction:ltr;text-orientation:mixed;dominant-baseline:auto;baseline-shift:baseline;text-anchor:start;white-space:normal;shape-padding:0;clip-rule:nonzero;display:inline;overflow:visible;visibility:visible;opacity:1;isolation:auto;mix-blend-mode:normal;color-interpolation:sRGB;color-interpolation-filters:linearRGB;solid-color:#000000;solid-opacity:1;vector-effect:none;fill:#040404;fill-opacity:1;fill-rule:nonzero;stroke:none;stroke-width:3.3053484;stroke-linecap:butt;stroke-linejoin:miter;stroke-miterlimit:4;stroke-dasharray:none;stroke-dashoffset:0;stroke-opacity:1;color-rendering:auto;image-rendering:auto;shape-rendering:auto;text-rendering:auto;enable-background:accumulate"
         d="m 316.07031,-0.00195313 c -3.91766,2.9749e-4 -7.11188,0.15253921 -9.625,0.47656251 -2.5152,0.32491574 -4.60835,0.85500642 -6.30859,1.66015622 -1.64772,0.7807233 -2.95392,1.7403856 -3.80274,3.0136719 -0.78435,1.1766048 -1.20732,2.5400017 -1.20703,3.9394531 V 172.23633 c 0,12.2437 0.0395,24.99402 0.11719,38.24414 0.0641,10.9847 0.26031,21.41077 0.48438,31.70508 -2.75058,-5.34164 -5.50465,-10.68452 -8.29688,-15.98438 -3.79494,-7.20212 -7.62596,-14.52218 -11.49805,-21.95703 -3.87872,-7.44665 -7.90968,-15.00709 -12.09765,-22.68555 -4.18477,-7.67158 -8.52767,-15.53729 -13.02149,-23.5957 l -0.006,-0.006 -20.20703,-36.55469 v 6.82618 l 17.32227,31.33593 c 4.49064,8.05269 8.82691,15.91163 13.00781,23.57617 4.17832,7.66068 8.20369,15.20759 12.07227,22.63477 3.87443,7.43941 7.70645,14.7618 11.5039,21.96875 3.79249,7.19845 7.55005,14.43514 11.26563,21.71094 l 0.45898,0.89648 h 2.93555 l -0.0371,-1.6914 c -0.30971,-12.22844 -0.50485,-24.96186 -0.58203,-38.19922 -0.0777,-13.2441 -0.11524,-25.98788 -0.11524,-38.22461 V 9.0878906 c -1.6e-4,-0.7691215 0.197,-1.4222202 0.65235,-2.1054687 0.39023,-0.5853772 1.16825,-1.2450099 2.46484,-1.859375 1.24308,-0.5886495 3.03192,-1.0736095 5.32031,-1.3691407 2.28942,-0.2951676 5.36948,-0.4508743 9.19922,-0.4511718 3.35837,2.975e-4 6.23795,0.1532939 8.625,0.4511718 2.36521,0.2958287 4.14109,0.7837999 5.27344,1.3496094 1.21921,0.609969 1.9801,1.2665244 2.38867,1.8789063 0.45521,0.6833807 0.65218,1.3358184 0.65235,2.1054687 V 286.58203 c -2.4e-4,2.91981 -0.47516,5.31436 -1.35547,7.21094 -0.92124,1.98364 -2.09815,3.55467 -3.53125,4.7832 -1.46318,1.25395 -3.0667,2.14515 -4.86719,2.69922 -1.8665,0.57424 -3.71418,0.85156 -5.55859,0.85156 h -12.78321 c -3.91208,0 -7.29255,-0.41286 -10.1289,-1.21289 -2.78066,-0.78426 -5.43418,-2.21237 -7.99219,-4.33203 -2.56069,-2.12157 -5.18121,-5.06717 -7.83008,-8.85156 -2.65816,-3.79705 -5.61906,-8.70922 -8.85156,-14.71289 l -0.006,-0.006 L 230.60156,201.75 v 6.80664 l 36.61133,66.04297 c 3.27064,6.07328 6.27483,11.07764 9.03711,15.02344 2.77249,3.96106 5.5702,7.13056 8.43164,9.50195 2.86442,2.37357 5.94462,4.05056 9.20703,4.9707 3.20579,0.90425 6.88025,1.33594 11.02539,1.33594 h 12.78321 c 2.18348,0 4.36299,-0.33473 6.52539,-1 2.2274,-0.68543 4.25772,-1.80878 6.04882,-3.34375 1.82009,-1.56032 3.2854,-3.55357 4.37891,-5.9082 1.13334,-2.4417 1.6638,-5.31994 1.66406,-8.59766 V 9.0878906 c -3.3e-4,-1.3988895 -0.4233,-2.7629805 -1.20703,-3.9394531 -0.83149,-1.2462816 -2.09104,-2.2168668 -3.66015,-3.0019531 -1.65714,-0.8279898 -3.74756,-1.34762035 -6.33985,-1.67187502 h -0.006 c -2.57149,-0.32094933 -5.5728,-0.47626502 -9.03125,-0.47656251 z"
         transform="matrix(0.30253997,0,0,0.30253997,192.75314,353.56519)"
         id="path4761"
         inkscape:connector-curvature="0" />
      <path
         style="color:#000000;font-style:normal;font-variant:normal;font-weight:normal;font-stretch:normal;font-size:144px;line-height:125%;font-family:Calibri;-inkscape-font-specification:Calibri;font-variant-ligatures:normal;font-variant-position:normal;font-variant-caps:normal;font-variant-numeric:normal;font-variant-alternates:normal;font-feature-settings:normal;text-indent:0;text-align:start;text-decoration:none;text-decoration-line:none;text-decoration-style:solid;text-decoration-color:#000000;letter-spacing:0px;word-spacing:0px;text-transform:none;writing-mode:lr-tb;direction:ltr;text-orientation:mixed;dominant-baseline:auto;baseline-shift:baseline;text-anchor:start;white-space:normal;shape-padding:0;clip-rule:nonzero;display:inline;overflow:visible;visibility:visible;opacity:1;isolation:auto;mix-blend-mode:normal;color-interpolation:sRGB;color-interpolation-filters:linearRGB;solid-color:#000000;solid-opacity:1;vector-effect:none;fill:#040404;fill-opacity:1;fill-rule:nonzero;stroke:none;stroke-width:3.3053484;stroke-linecap:butt;stroke-linejoin:miter;stroke-miterlimit:4;stroke-dasharray:none;stroke-dashoffset:0;stroke-opacity:1;color-rendering:auto;image-rendering:auto;shape-rendering:auto;text-rendering:auto;enable-background:accumulate"
         d="m 123.63672,0.6953125 c -4.38855,3.3053e-4 -8.51206,1.47259 -12.16992,4.2988281 -3.90484,3.0176839 -5.75202,8.0505164 -5.75196,14.5507814 v 67.175781 l 3.30664,5.980469 v -73.15625 c -6e-5,-5.894229 1.55429,-9.68477 4.4668,-11.935547 C 116.64767,5.1682761 119.96841,4.0002644 123.63672,4 h 19.05664 c 4.3982,2.975e-4 8.02887,0.3838841 10.85937,1.109375 2.82809,0.7254248 5.33119,1.9122087 7.5586,3.5644531 2.22222,1.6491049 4.4408,3.9942109 6.61133,7.0624999 2.19561,3.104582 4.60607,7.044761 7.21875,11.808594 l 0.006,0.0059 14.46679,26.169922 v -6.828125 l -11.57422,-20.9375 c -2.65545,-4.841806 -5.12058,-8.87455 -7.41796,-12.123047 -2.32287,-3.283599 -4.7592,-5.8954609 -7.33985,-7.8105466 -2.57586,-1.9107227 -5.49463,-3.2887621 -8.70898,-4.1132813 -3.21217,-0.8233292 -7.09164,-1.21259312 -11.67969,-1.2128906 z"
         transform="matrix(0.30253997,0,0,0.30253997,192.75314,353.56519)"
         id="path4759"
         inkscape:connector-curvature="0" />
      <path
         style="color:#000000;font-style:normal;font-variant:normal;font-weight:normal;font-stretch:normal;font-size:144px;line-height:125%;font-family:Calibri;-inkscape-font-specification:Calibri;font-variant-ligatures:normal;font-variant-position:normal;font-variant-caps:normal;font-variant-numeric:normal;font-variant-alternates:normal;font-feature-settings:normal;text-indent:0;text-align:start;text-decoration:none;text-decoration-line:none;text-decoration-style:solid;text-decoration-color:#000000;letter-spacing:0px;word-spacing:0px;text-transform:none;writing-mode:lr-tb;direction:ltr;text-orientation:mixed;dominant-baseline:auto;baseline-shift:baseline;text-anchor:start;white-space:normal;shape-padding:0;clip-rule:nonzero;display:inline;overflow:visible;visibility:visible;opacity:1;isolation:auto;mix-blend-mode:normal;color-interpolation:sRGB;color-interpolation-filters:linearRGB;solid-color:#000000;solid-opacity:1;vector-effect:none;fill:#040404;fill-opacity:1;fill-rule:nonzero;stroke:none;stroke-width:3.3053484;stroke-linecap:butt;stroke-linejoin:miter;stroke-miterlimit:4;stroke-dasharray:none;stroke-dashoffset:0;stroke-opacity:1;color-rendering:auto;image-rendering:auto;shape-rendering:auto;text-rendering:auto;enable-background:accumulate"
         d="m 142.62305,45.083984 0.0449,1.697266 c 0.30938,11.147519 0.54234,22.532016 0.69726,34.144531 0.15503,11.613309 0.23243,23.145729 0.23243,34.603519 V 155.25 l 1.49609,2.70703 0.008,0.006 c 0.61071,1.09512 1.19568,2.15809 1.80078,3.24609 V 115.5293 c 0,-11.47267 -0.0774,-23.020622 -0.23242,-34.648441 -0.12626,-9.452007 -0.33797,-18.64548 -0.5664,-27.791015 3.59165,7.42011 7.23913,14.881031 11.27734,22.646484 5.04294,9.698388 10.04818,18.976363 15.01562,27.824222 l 17.01758,30.69726 v -6.80664 l -14.13867,-25.5039 v -0.008 C 170.32659,93.124783 165.3403,83.882191 160.3125,74.212891 155.28546,64.54597 150.60623,55.155237 146.27734,46.033203 l -0.44531,-0.949219 z"
         transform="matrix(0.30253997,0,0,0.30253997,192.75314,353.56519)"
         id="path4757"
         inkscape:connector-curvature="0" />
      <path
         style="color:#000000;font-style:normal;font-variant:normal;font-weight:normal;font-stretch:normal;font-size:144px;line-height:125%;font-family:Calibri;-inkscape-font-specification:Calibri;font-variant-ligatures:normal;font-variant-position:normal;font-variant-caps:normal;font-variant-numeric:normal;font-variant-alternates:normal;font-feature-settings:normal;text-indent:0;text-align:start;text-decoration:none;text-decoration-line:none;text-decoration-style:solid;text-decoration-color:#000000;letter-spacing:0px;word-spacing:0px;text-transform:none;writing-mode:lr-tb;direction:ltr;text-orientation:mixed;dominant-baseline:auto;baseline-shift:baseline;text-anchor:start;white-space:normal;shape-padding:0;clip-rule:nonzero;display:inline;overflow:visible;visibility:visible;opacity:1;isolation:auto;mix-blend-mode:normal;color-interpolation:sRGB;color-interpolation-filters:linearRGB;solid-color:#000000;solid-opacity:1;vector-effect:none;fill:#040404;fill-opacity:1;fill-rule:nonzero;stroke:none;stroke-width:3.3053484;stroke-linecap:butt;stroke-linejoin:miter;stroke-miterlimit:4;stroke-dasharray:none;stroke-dashoffset:0;stroke-opacity:1;color-rendering:auto;image-rendering:auto;shape-rendering:auto;text-rendering:auto;enable-background:accumulate"
         d="m 105.71484,173.97266 v 123.0664 c -10e-5,1.39945 0.41714,2.77714 1.17578,4.00977 0.84026,1.3656 2.18864,2.35852 3.82813,2.99609 1.56925,0.61027 3.55766,1.08572 6.0293,1.48438 2.53384,0.40867 5.66935,0.59961 9.44531,0.59961 3.77583,0 6.91133,-0.19094 9.44531,-0.59961 2.46877,-0.3982 4.48748,-0.87373 6.11328,-1.47266 1.71264,-0.63102 3.12008,-1.61616 3.97657,-3.00781 0.75824,-1.23247 1.17372,-2.61035 1.17382,-4.00977 v -48.76953 l -3.30468,-5.96094 v 54.73047 c -7e-5,0.76975 -0.20254,1.49179 -0.6836,2.27344 -0.38315,0.6226 -1.07364,1.18511 -2.30468,1.63867 -1.31821,0.48562 -3.16583,0.94188 -5.5,1.31836 -2.26923,0.366 -5.25495,0.55469 -8.91602,0.55469 -3.6612,0 -6.64693,-0.18889 -8.91602,-0.55469 -2.33156,-0.37605 -4.13788,-0.8304 -5.35742,-1.30469 -1.1495,-0.44701 -1.81575,-1.00373 -2.21484,-1.65234 -0.481,-0.78152 -0.68366,-1.50372 -0.6836,-2.27344 V 179.9375 Z"
         transform="matrix(0.30253997,0,0,0.30253997,192.75314,353.56519)"
         id="path3764"
         inkscape:connector-curvature="0" />
    </g>
    <g
       style="font-style:normal;font-variant:normal;font-weight:normal;font-stretch:normal;font-size:48px;line-height:125%;font-family:Calibri;-inkscape-font-specification:Calibri;letter-spacing:0px;word-spacing:0px;fill:#ffffff;fill-opacity:1;stroke:#000000;stroke-opacity:1"
       id="text3755"
       transform="matrix(4.6274876,0,0,4.6274876,-902.90355,-1459.1235)">
      <path
         style="color:#000000;font-style:normal;font-variant:normal;font-weight:normal;font-stretch:normal;font-size:144px;line-height:125%;font-family:Calibri;-inkscape-font-specification:Calibri;font-variant-ligatures:normal;font-variant-position:normal;font-variant-caps:normal;font-variant-numeric:normal;font-variant-alternates:normal;font-feature-settings:normal;text-indent:0;text-align:start;text-decoration:none;text-decoration-line:none;text-decoration-style:solid;text-decoration-color:#000000;letter-spacing:0px;word-spacing:0px;text-transform:none;writing-mode:lr-tb;direction:ltr;text-orientation:mixed;dominant-baseline:auto;baseline-shift:baseline;text-anchor:start;white-space:normal;shape-padding:0;clip-rule:nonzero;display:inline;overflow:visible;visibility:visible;opacity:1;isolation:auto;mix-blend-mode:normal;color-interpolation:sRGB;color-interpolation-filters:linearRGB;solid-color:#000000;solid-opacity:1;vector-effect:none;fill:#000000;fill-opacity:1;fill-rule:nonzero;stroke:none;stroke-width:1;stroke-linecap:butt;stroke-linejoin:miter;stroke-miterlimit:4;stroke-dasharray:none;stroke-dashoffset:0;stroke-opacity:1;color-rendering:auto;image-rendering:auto;shape-rendering:auto;text-rendering:auto;enable-background:accumulate"
         d="m 288.37695,353.56445 c -1.18525,9e-5 -2.15179,0.0465 -2.91211,0.14453 -0.76095,0.0983 -1.39381,0.25837 -1.9082,0.50196 -0.4985,0.2362 -0.89359,0.52689 -1.15039,0.91211 -0.2373,0.35597 -0.36532,0.76801 -0.36523,1.1914 v 49.35938 c 0,3.70421 0.0116,7.56162 0.0351,11.57031 0.0194,3.32331 0.0787,6.47736 0.14649,9.5918 -0.83216,-1.61606 -1.66501,-3.23252 -2.50977,-4.83594 -1.14812,-2.17893 -2.30705,-4.39324 -3.47851,-6.64258 -1.17347,-2.25291 -2.39313,-4.54024 -3.66016,-6.86328 -1.26606,-2.32096 -2.57989,-4.70068 -3.93945,-7.13867 l -0.002,-0.002 -22.07617,-39.93555 c -0.80338,-1.46484 -1.54909,-2.68517 -2.24414,-3.66797 -0.70276,-0.99342 -1.43995,-1.78389 -2.2207,-2.36328 -0.7793,-0.57807 -1.6623,-0.99469 -2.63477,-1.24414 -0.97181,-0.24909 -2.14513,-0.3671 -3.5332,-0.36719 h -5.76563 c -1.32771,10e-5 -2.57499,0.44573 -3.68164,1.30078 -1.18137,0.91297 -1.74025,2.43576 -1.74023,4.40235 v 83.95312 c -3e-5,0.42339 0.12595,0.83997 0.35547,1.21289 0.25421,0.41315 0.66219,0.71336 1.1582,0.90625 0.47476,0.18463 1.07645,0.32861 1.82422,0.44922 0.76659,0.12364 1.71504,0.18164 2.85742,0.18164 1.14234,0 2.09079,-0.058 2.85742,-0.18164 0.7469,-0.12047 1.35774,-0.26411 1.84961,-0.44531 0.51814,-0.19091 0.94401,-0.48913 1.20313,-0.91016 0.2294,-0.37287 0.35544,-0.78951 0.35547,-1.21289 v -54.91406 c 0,-3.47094 -0.0234,-6.96454 -0.0703,-10.48242 -0.0382,-2.85961 -0.10276,-5.64132 -0.17187,-8.40821 1.08662,2.24488 2.19039,4.50221 3.41211,6.85157 1.52569,2.93415 3.04012,5.74113 4.54297,8.41796 l 28.68554,51.7461 c 0.9895,1.83741 1.89868,3.35116 2.73438,4.54492 0.83879,1.19838 1.68508,2.15756 2.55078,2.875 0.8666,0.7181 1.79815,1.22553 2.78516,1.50391 0.96988,0.27357 2.08186,0.40429 3.33593,0.40429 h 3.86719 c 0.66059,0 1.3204,-0.10146 1.97461,-0.30273 0.67388,-0.20737 1.2882,-0.54733 1.83008,-1.01172 0.55065,-0.47206 0.99339,-1.07474 1.32422,-1.78711 0.34288,-0.73871 0.50382,-1.60992 0.5039,-2.60156 V 356.3144 c -1e-4,-0.42322 -0.12812,-0.83547 -0.36523,-1.1914 -0.25156,-0.37705 -0.6327,-0.67069 -1.10742,-0.90821 -0.50135,-0.2505 -1.1337,-0.40776 -1.91797,-0.50586 h -0.002 c -0.77798,-0.0971 -1.68611,-0.14444 -2.73243,-0.14453 z m 0,1 c 1.01604,9e-5 1.8872,0.0466 2.60938,0.13672 0.71557,0.0895 1.25312,0.23703 1.5957,0.40821 0.36886,0.18454 0.59905,0.38308 0.72266,0.56835 0.13772,0.20675 0.19721,0.40387 0.19726,0.63672 v 83.95313 c -7e-5,0.88336 -0.14382,1.60785 -0.41015,2.18164 -0.27871,0.60013 -0.63479,1.07558 -1.06836,1.44726 -0.44267,0.37937 -0.92794,0.64878 -1.47266,0.81641 -0.56469,0.17373 -1.12363,0.25781 -1.68164,0.25781 h -3.86719 c -1.18356,0 -2.20634,-0.12514 -3.06445,-0.36718 -0.84126,-0.23727 -1.64407,-0.66927 -2.41797,-1.31055 -0.77471,-0.64186 -1.56775,-1.53281 -2.36914,-2.67774 -0.8042,-1.14876 -1.69977,-2.63482 -2.67773,-4.45117 l -0.002,-0.002 -28.68945,-51.75391 v -0.002 c -1.49721,-2.66679 -3.00623,-5.46332 -4.52734,-8.38867 -1.52088,-2.92463 -2.93644,-5.76561 -4.2461,-8.52539 l -0.13476,-0.28711 h -0.97071 l 0.0137,0.51367 c 0.0936,3.37257 0.16406,6.81683 0.21093,10.33008 0.0469,3.51349 0.0703,7.00231 0.0703,10.46875 v 54.91406 c -2e-5,0.23288 -0.0615,0.45102 -0.20704,0.6875 -0.11592,0.18836 -0.32482,0.35887 -0.69726,0.49609 -0.39881,0.14692 -0.95788,0.28454 -1.66406,0.39844 -0.68653,0.11073 -1.58965,0.16797 -2.69727,0.16797 -1.10766,0 -2.01077,-0.0573 -2.69726,-0.16797 -0.70539,-0.11377 -1.25214,-0.25104 -1.6211,-0.39453 -0.34777,-0.13524 -0.54918,-0.30377 -0.66992,-0.5 -0.14552,-0.23644 -0.20705,-0.45463 -0.20703,-0.6875 v -83.95312 c -2e-5,-1.78324 0.47041,-2.93038 1.35156,-3.61133 0.95584,-0.73853 1.9605,-1.09172 3.07031,-1.0918 h 5.76563 c 1.33063,9e-5 2.42881,0.11645 3.28515,0.33594 0.85561,0.21947 1.61323,0.57825 2.28711,1.07812 0.67231,0.49892 1.34333,1.20844 2,2.13672 0.66426,0.93926 1.39316,2.13102 2.1836,3.57227 l 0.002,0.002 22.07813,39.93945 c 1.3586,2.43626 2.67065,4.81399 3.93554,7.13282 1.26411,2.31766 2.48195,4.60063 3.65235,6.84765 1.17217,2.25072 2.33158,4.4661 3.48046,6.64649 1.14738,2.17782 2.2841,4.36714 3.40821,6.56836 l 0.13867,0.27148 h 0.88867 l -0.0117,-0.51172 c -0.0937,-3.69959 -0.15243,-7.55181 -0.17578,-11.55664 -0.0235,-4.00687 -0.0351,-7.86235 -0.0351,-11.56445 V 356.3144 c -5e-5,-0.23269 0.0595,-0.43001 0.19726,-0.63672 0.11806,-0.1771 0.35383,-0.37663 0.7461,-0.5625 0.37608,-0.17809 0.91704,-0.32465 1.60937,-0.41406 0.69264,-0.0893 1.62455,-0.13663 2.7832,-0.13672 z"
         id="path3760"
         inkscape:connector-curvature="0" />
    </g>
  </g>
</svg>
