<?xml version="1.0" encoding="UTF-8" standalone="no"?>
<!-- Created with Inkscape (http://www.inkscape.org/) -->

<svg
   xmlns:dc="http://purl.org/dc/elements/1.1/"
   xmlns:cc="http://creativecommons.org/ns#"
   xmlns:rdf="http://www.w3.org/1999/02/22-rdf-syntax-ns#"
   xmlns:svg="http://www.w3.org/2000/svg"
   xmlns="http://www.w3.org/2000/svg"
   xmlns:sodipodi="http://sodipodi.sourceforge.net/DTD/sodipodi-0.dtd"
   xmlns:inkscape="http://www.inkscape.org/namespaces/inkscape"
   width="93.725113mm"
   height="161.33203mm"
   viewBox="0 0 93.725113 161.33203"
   version="1.1"
   id="svg8"
   inkscape:version="0.92.5 (2060ec1f9f, 2020-04-08)"
   sodipodi:docname="rocket-fg.svg">
  <defs
     id="defs2" />
  <sodipodi:namedview
     id="base"
     pagecolor="#ffffff"
     bordercolor="#666666"
     borderopacity="1.0"
     inkscape:pageopacity="0.0"
     inkscape:pageshadow="2"
     inkscape:zoom="1.4005537"
     inkscape:cx="177.11832"
     inkscape:cy="304.87943"
     inkscape:document-units="mm"
     inkscape:current-layer="layer1"
     showgrid="false"
     inkscape:window-width="1848"
     inkscape:window-height="1016"
     inkscape:window-x="72"
     inkscape:window-y="27"
     inkscape:window-maximized="1"
     fit-margin-top="0"
     fit-margin-left="0"
     fit-margin-right="0"
     fit-margin-bottom="0" />
  <metadata
     id="metadata5">
    <rdf:RDF>
      <cc:Work
         rdf:about="">
        <dc:format>image/svg+xml</dc:format>
        <dc:type
           rdf:resource="http://purl.org/dc/dcmitype/StillImage" />
        <dc:title></dc:title>
      </cc:Work>
    </rdf:RDF>
  </metadata>
  <g
     inkscape:label="Layer 1"
     inkscape:groupmode="layer"
     id="layer1"
     transform="translate(-39.180868,-123.14865)">
    <path
       style="fill:#0c0000;fill-opacity:1;stroke-width:0.5933544"
       d="m 131.48828,521.26367 c 1.36905,5.40212 2.79897,10.78405 4.4375,16.10156 h 75.16016 c 2.31143,-5.34805 4.61796,-10.73642 6.93359,-16.10156 z"
       transform="matrix(0.26458333,0,0,0.26458333,39.180868,123.14865)"
       id="path7113"
       inkscape:connector-curvature="0"
       sodipodi:nodetypes="ccccc" />
    <path
       style="fill:#0c0000;fill-opacity:1;stroke-width:0.49902412"
       d="m 123.12695,490.08203 c 1.70737,5.31131 3.18006,10.69435 4.57227,16.10156 h 96.96289 c 2.49621,-5.52293 5.0294,-10.92819 7.63281,-16.10156 z"
       transform="matrix(0.26458333,0,0,0.26458333,39.180868,123.14865)"
       id="path4607"
       inkscape:connector-curvature="0"
       sodipodi:nodetypes="ccccc" />
    <path
       style="opacity:1;fill:#000000;stroke-width:0.13203347"
       d="m 125.3643,272.27639 c -0.029,-0.11803 -0.2145,-0.93515 -0.41215,-1.81582 -1.19889,-5.34176 -3.11156,-10.67018 -4.96532,-13.83266 -1.11495,-1.90209 -2.13747,-3.09735 -3.57882,-4.18345 -2.37317,-1.78825 -4.92441,-2.71646 -8.24978,-3.0015 -0.56754,-0.0487 -1.16145,-0.1004 -1.31979,-0.11501 -0.2623,-0.0242 -0.16482,-0.39894 1.0965,-4.21499 2.81656,-8.52132 5.10122,-17.45755 6.284,-24.57916 0.19707,-1.18654 0.37909,-2.24556 0.4045,-2.35337 0.17611,-0.7473 4.71743,2.94776 7.35658,5.98572 2.18028,2.50972 3.21732,4.29956 4.5391,7.83406 3.29813,8.81935 3.61624,18.25316 1.0648,31.5769 -0.67838,3.54252 -2.10895,9.1493 -2.21962,8.69928 z"
       id="path4670"
       inkscape:connector-curvature="0" />
    <path
       style="opacity:1;fill:#000000;stroke-width:0.49902412"
       d="m 97.478516,167.6543 c -4.445786,12.55881 -6.698044,26.73549 -8.607422,38.66992 -9.223079,58.59598 -7.544251,118.79439 5.05664,181.25195 5.299438,26.26719 9.768326,42.70181 19.234376,70.7461 2.79361,8.2764 4.81616,14.07343 6.42578,18.46289 h 115.52344 c 4.21982,-11.90626 11.03841,-32.71089 15.74023,-48.35938 10.51518,-34.99638 17.73458,-76.55561 20.62891,-118.75195 0.95607,-13.93807 1.11625,-48.13819 0.28906,-61.53711 -1.13926,-18.45245 -3.63423,-39.22427 -6.53906,-54.44727 -1.58706,-8.31713 -4.36289,-21.35596 -5.50195,-26.03515 z m 82.318364,54.38672 c 22.02256,-5.3e-4 39.87553,17.85241 39.875,39.875 -5.5e-4,22.02179 -17.8532,39.87357 -39.875,39.87304 -22.02106,-5.3e-4 -39.87251,-17.85201 -39.87305,-39.87304 -5.5e-4,-22.02184 17.85123,-39.87448 39.87305,-39.875 z"
       transform="matrix(0.26458333,0,0,0.26458333,39.180868,123.14865)"
       id="path4654"
       inkscape:connector-curvature="0" />
    <path
       style="opacity:1;fill:#000000;fill-opacity:1;stroke:none;stroke-width:0.30000001;stroke-miterlimit:4;stroke-dasharray:none;stroke-dashoffset:0;stroke-opacity:1"
       d="m 92.451998,192.44722 a 5.6999998,5.6999998 0 0 1 -5.699999,5.7 5.6999998,5.6999998 0 0 1 -5.7,-5.7 5.6999998,5.6999998 0 0 1 5.7,-5.7 5.6999998,5.6999998 0 0 1 5.699999,5.7 z"
       id="path4689"
       inkscape:connector-curvature="0" />
    <path
       style="opacity:1;fill:#000000;stroke-width:0.13203347"
       d="m 46.363282,270.85905 c -1.500541,-4.93328 -2.89437,-13.30809 -3.243722,-19.48988 -0.167546,-2.96467 -0.08377,-7.47685 0.177005,-9.53361 0.652793,-5.1486 2.126342,-10.27732 4.060085,-14.1312 1.536789,-3.06278 2.842132,-4.69815 5.183628,-6.49421 1.521406,-1.167 4.35211,-2.98436 4.742931,-3.04503 0.234601,-0.0365 0.38592,0.53364 1.295881,4.88213 2.327673,11.12339 3.632441,16.00223 6.210735,23.22338 0.560673,1.5703 0.993003,2.8815 0.960731,2.91378 -0.03229,0.0323 -0.751635,0.1306 -1.598579,0.21851 -2.98885,0.31023 -4.941991,0.85931 -6.66072,1.87253 -1.217854,0.71795 -3.390286,2.70167 -4.38504,4.00415 -2.003278,2.62298 -4.190022,8.30968 -5.742446,14.93345 -0.246832,1.05317 -0.477386,1.94344 -0.512338,1.9784 -0.03494,0.0349 -0.254622,-0.56463 -0.488151,-1.3324 z"
       id="path4648"
       inkscape:connector-curvature="0" />
    <path
       style="fill:#000000;stroke-width:0.85237217"
       d="m 246.80859,125.35547 -137.81445,0.0547 c -3.76155,9.86585 -7.11805,19.89853 -10.074218,30.06054 L 256.8457,155.12695 c -2.92881,-10.07042 -6.27112,-20.00637 -10.03711,-29.77148 z"
       transform="matrix(0.26458333,0,0,0.26458333,39.180868,123.14865)"
       id="path4646"
       inkscape:connector-curvature="0"
       sodipodi:nodetypes="ccccc" />
    <path
       style="fill:#000000;stroke-width:0.49902412"
       d="m 177.27344,20.335938 -3.90625,4.386718 c -16.23289,18.228737 -33.31237,41.404322 -43.04297,58.404297 -4.42475,7.730343 -11.79421,21.498477 -13.83984,25.859377 l -1.41797,3.02344 H 239.87695 C 237.77041,107.29016 230.92386,94.327794 226.47852,86.857422 211.80579,62.200011 192.16594,35.226486 180.09375,23.154297 Z"
       transform="matrix(0.26458333,0,0,0.26458333,39.180868,123.14865)"
       id="path4529"
       inkscape:connector-curvature="0" />
  </g>
</svg>
