<?xml version="1.0" encoding="UTF-8" standalone="no"?>
<!-- Created with Inkscape (http://www.inkscape.org/) -->

<svg
   width="9.7337141mm"
   height="10mm"
   viewBox="0 0 9.7337141 10"
   version="1.1"
   id="svg1"
   sodipodi:docname="checkmark.svg"
   inkscape:version="1.3 (0e150ed6c4, 2023-07-21)"
   xmlns:inkscape="http://www.inkscape.org/namespaces/inkscape"
   xmlns:sodipodi="http://sodipodi.sourceforge.net/DTD/sodipodi-0.dtd"
   xmlns="http://www.w3.org/2000/svg"
   xmlns:svg="http://www.w3.org/2000/svg">
  <sodipodi:namedview
     id="namedview1"
     pagecolor="#ffffff"
     bordercolor="#666666"
     borderopacity="1.0"
     inkscape:showpageshadow="2"
     inkscape:pageopacity="0.0"
     inkscape:pagecheckerboard="0"
     inkscape:deskcolor="#d1d1d1"
     inkscape:document-units="mm"
     inkscape:zoom="11.313708"
     inkscape:cx="15.733126"
     inkscape:cy="15.24699"
     inkscape:window-width="1920"
     inkscape:window-height="1017"
     inkscape:window-x="-8"
     inkscape:window-y="-8"
     inkscape:window-maximized="1"
     inkscape:current-layer="layer1" />
  <defs
     id="defs1">
    <rect
       x="165.43835"
       y="367.79269"
       width="155.86752"
       height="75.199249"
       id="rect1" />
  </defs>
  <g
     inkscape:label="Ebene 1"
     inkscape:groupmode="layer"
     id="layer1"
     transform="translate(-40.923636,-94.887445)">
    <path
       d="m 169.56641,378.34768 q 0.35547,0 0.53777,0.58333 0.36458,1.09375 0.51953,1.09375 0.11849,0 0.24609,-0.18229 2.5612,-4.10157 4.73959,-6.63543 0.56511,-0.65625 1.79558,-0.65625 0.29167,0 0.39193,0.0547 0.10026,0.0547 0.10026,0.13672 0,0.1276 -0.30078,0.5013 -3.51824,4.22917 -6.52606,8.93231 -0.20963,0.32812 -0.85677,0.32812 -0.65625,0 -0.77474,-0.0547 -0.3099,-0.13672 -0.72917,-1.39454 -0.47396,-1.39453 -0.47396,-1.75 0,-0.38281 0.63802,-0.73828 0.39193,-0.21875 0.69271,-0.21875 z"
       id="text1"
       style="font-size:18.6667px;line-height:125%;font-family:Calibri;-inkscape-font-specification:Calibri;letter-spacing:0px;word-spacing:0px;white-space:pre;stroke:#000000;stroke-width:1px"
       transform="matrix(0.91297996,0,0,0.91297996,-112.21568,-244.78747)"
       aria-label="✓" />
  </g>
</svg>
